<svg xmlns="http://www.w3.org/2000/svg" viewBox="0 0 260 360">
  <defs>
    <radialGradient id="eyeGlow" cx="50%" cy="50%" r="60%">
      <stop offset="0" stop-color="#9affff"/>
      <stop offset="1" stop-color="#42e8ff"/>
    </radialGradient>
    <linearGradient id="orange" x1="0" x2="1" y1="0" y2="1">
      <stop offset="0" stop-color="#ffb13b"/>
      <stop offset=".55" stop-color="#fc6e02"/>
      <stop offset="1" stop-color="#a43600"/>
    </linearGradient>
    <filter id="shadow" x="-30%" y="-30%" width="160%" height="170%">
      <feDropShadow dx="0" dy="14" stdDeviation="11" flood-color="#000" flood-opacity=".45"/>
      <feDropShadow dx="0" dy="0" stdDeviation="10" flood-color="#42e8ff" flood-opacity=".24"/>
    </filter>
  </defs>
  <g filter="url(#shadow)">
    <ellipse cx="124" cy="338" rx="88" ry="16" fill="#000" opacity=".32"/>
    <path d="M64 105c-12-18-20-40-23-64" fill="none" stroke="#fc6e02" stroke-width="8" stroke-linecap="round"/>
    <path d="M196 105c12-18 20-40 23-64" fill="none" stroke="#fc6e02" stroke-width="8" stroke-linecap="round"/>
    <circle cx="38" cy="33" r="9" fill="#ff9f1c"/>
    <circle cx="222" cy="33" r="9" fill="#ff9f1c"/>
    <rect x="38" y="64" width="184" height="128" rx="54" fill="url(#orange)"/>
    <rect x="60" y="88" width="140" height="72" rx="30" fill="#071018"/>
    <rect x="82" y="111" width="28" height="35" rx="13" fill="url(#eyeGlow)"/>
    <rect x="150" y="111" width="28" height="35" rx="13" fill="url(#eyeGlow)"/>
    <path d="M98 163q31 24 64 0" fill="none" stroke="#42e8ff" stroke-width="7" stroke-linecap="round"/>
    <circle cx="40" cy="126" r="24" fill="#101010" stroke="#ff9f1c" stroke-width="8"/>
    <circle cx="220" cy="126" r="24" fill="#101010" stroke="#ff9f1c" stroke-width="8"/>
    <rect x="70" y="182" width="120" height="98" rx="34" fill="url(#orange)"/>
    <rect x="91" y="205" width="78" height="24" rx="12" fill="#101010" opacity=".8"/>
    <text x="130" y="225" text-anchor="middle" font-family="Arial Black, Arial" font-size="17" fill="#101010">KOBEM</text>
    <path d="M75 210c-23 11-42 35-54 67" fill="none" stroke="#101010" stroke-width="22" stroke-linecap="round"/>
    <path d="M185 210c25 7 48 24 66 52" fill="none" stroke="#101010" stroke-width="22" stroke-linecap="round"/>
    <path d="M77 211c-20 11-36 30-47 58" fill="none" stroke="#fc6e02" stroke-width="12" stroke-linecap="round"/>
    <path d="M183 211c22 7 41 22 57 46" fill="none" stroke="#fc6e02" stroke-width="12" stroke-linecap="round"/>
    <path d="M102 270c-20 15-34 35-43 61" fill="none" stroke="#101010" stroke-width="24" stroke-linecap="round"/>
    <path d="M157 270c20 16 37 36 54 62" fill="none" stroke="#101010" stroke-width="24" stroke-linecap="round"/>
    <path d="M102 270c-17 14-28 31-36 53" fill="none" stroke="#fc6e02" stroke-width="13" stroke-linecap="round"/>
    <path d="M157 270c17 14 32 32 46 54" fill="none" stroke="#fc6e02" stroke-width="13" stroke-linecap="round"/>
    <circle cx="205" cy="292" r="39" fill="#fff" stroke="#111" stroke-width="3"/>
    <path d="M205 254l12 25 27 4-19 19 5 27-25-13-24 13 5-27-20-19 27-4z" fill="#111"/>
  </g>
</svg>
