<svg xmlns="http://www.w3.org/2000/svg" viewBox="0 0 900 1600" preserveAspectRatio="xMidYMid slice">
  <defs>
    <linearGradient id="sky" x1="0" x2="0" y1="0" y2="1">
      <stop offset="0" stop-color="#0759d6"/>
      <stop offset=".34" stop-color="#7bd1ff"/>
      <stop offset=".58" stop-color="#f39b45"/>
      <stop offset="1" stop-color="#13131b"/>
    </linearGradient>
    <linearGradient id="road" x1="0" x2="0" y1="0" y2="1">
      <stop offset="0" stop-color="#545f73"/>
      <stop offset="1" stop-color="#202633"/>
    </linearGradient>
    <filter id="glow">
      <feGaussianBlur stdDeviation="7" result="b"/>
      <feMerge><feMergeNode in="b"/><feMergeNode in="SourceGraphic"/></feMerge>
    </filter>
  </defs>
  <rect width="900" height="1600" fill="url(#sky)"/>
  <g opacity=".42">
    <rect x="60" y="260" width="80" height="250" fill="#174583"/>
    <rect x="170" y="210" width="90" height="310" fill="#215a9e"/>
    <rect x="640" y="230" width="92" height="290" fill="#184b8a"/>
    <rect x="760" y="285" width="74" height="230" fill="#2362aa"/>
  </g>
  <g>
    <rect y="450" width="205" height="620" fill="#17341f"/>
    <rect x="695" y="450" width="205" height="620" fill="#17341f"/>
    <g fill="#fc6e02">
      <rect x="22" y="490" width="154" height="26" rx="7"/>
      <rect x="22" y="570" width="154" height="26" rx="7"/>
      <rect x="22" y="650" width="154" height="26" rx="7"/>
      <rect x="724" y="490" width="154" height="26" rx="7"/>
      <rect x="724" y="570" width="154" height="26" rx="7"/>
      <rect x="724" y="650" width="154" height="26" rx="7"/>
    </g>
    <g fill="#ffd34d" opacity=".8">
      <circle cx="75" cy="438" r="7"/><circle cx="117" cy="430" r="6"/><circle cx="159" cy="442" r="7"/>
      <circle cx="742" cy="438" r="7"/><circle cx="786" cy="430" r="6"/><circle cx="830" cy="442" r="7"/>
    </g>
  </g>
  <path d="M323 420h254l355 1180H-32z" fill="url(#road)"/>
  <path d="M366 420L120 1600M450 420v1180M534 420l246 1180" stroke="#fff" stroke-opacity=".42" stroke-width="7"/>
  <path d="M450 440v1030" stroke="#ffd34d" stroke-width="16" stroke-dasharray="54 48" filter="url(#glow)" opacity=".78"/>
  <g filter="url(#glow)">
    <path d="M276 485a174 174 0 0 1 348 0v92" fill="none" stroke="#fc6e02" stroke-width="22" stroke-linecap="round"/>
    <rect x="338" y="453" width="224" height="56" rx="12" fill="#fc6e02"/>
    <text x="450" y="491" text-anchor="middle" font-family="Arial Black, Arial" font-size="29" fill="#fff">BEM ESPORTIVO</text>
  </g>
  <g fill="#fc6e02" opacity=".82">
    <path d="M230 520l-74 1080h-58l92-1070z"/>
    <path d="M670 520l74 1080h58L710 530z"/>
  </g>
</svg>
